<svg width="746" height="749" viewBox="0 0 746 749" fill="none" xmlns="http://www.w3.org/2000/svg">
<path d="M743 376C743 580.345 577.345 746 373 746C168.655 746 3 580.345 3 376C3 171.655 168.655 6.00001 373 6.00001C577.345 6.00001 743 171.655 743 376ZM743 376H6M373.5 746C220.241 746 96 579.674 96 374.5C96.0001 169.326 220.241 2.99999 373.5 3M373.5 746C526.759 746 651 579.674 651 374.5C651 169.326 526.759 3.00001 373.5 3M373.5 746C282.097 746 208 579.674 208 374.5C208 169.326 282.097 3 373.5 3M373.5 746C464.903 746 539 579.674 539 374.5C539 169.326 464.903 3 373.5 3M373.5 746C343.953 746 320 579.674 320 374.5C320 169.326 343.953 3 373.5 3M373.5 746C403.047 746 427 579.674 427 374.5C427 169.326 403.047 3 373.5 3M52 198H696M52 555H696" stroke="#1C403E" stroke-width="5"/>
</svg>
